<?xml version="1.0" standalone="no"?>
<!DOCTYPE svg PUBLIC "-//W3C//DTD SVG 20010904//EN"
 "http://www.w3.org/TR/2001/REC-SVG-20010904/DTD/svg10.dtd">
<svg version="1.0" xmlns="http://www.w3.org/2000/svg"
 width="419.000000pt" height="419.000000pt" viewBox="0 0 419.000000 419.000000"
 preserveAspectRatio="xMidYMid meet">
<metadata>
Created by potrace 1.11, written by Peter Selinger 2001-2013
</metadata>
<g transform="translate(0.000000,419.000000) scale(0.100000,-0.100000)"
fill="#000000" stroke="none">
<path d="M2637 4182 c-62 -3 -69 -10 -82 -80 -7 -37 -9 -48 -40 -197 -15 -71
-33 -155 -39 -185 -8 -37 -16 -54 -25 -52 -107 23 -255 34 -411 29 -174 -6
-203 -9 -290 -27 -25 -5 -56 -12 -70 -14 -14 -3 -64 -16 -111 -30 -558 -164
-1010 -583 -1212 -1126 -41 -111 -78 -246 -92 -340 -3 -20 -8 -47 -11 -60 -10
-41 -13 -400 -4 -460 4 -30 11 -75 15 -100 3 -25 11 -63 17 -85 5 -22 12 -51
15 -65 19 -109 145 -404 224 -525 148 -228 339 -423 553 -563 75 -49 274 -154
316 -167 14 -4 39 -13 55 -20 66 -30 246 -77 340 -90 11 -2 34 -6 50 -10 49
-11 394 -14 475 -4 411 51 799 240 1089 530 138 138 258 304 347 481 33 66
101 231 110 268 2 8 14 58 28 110 43 167 51 236 51 450 0 156 -8 276 -20 312
-2 7 -6 29 -9 48 -17 112 -91 329 -157 463 -89 177 -218 359 -334 469 -19 18
-17 21 169 207 l189 189 -36 65 c-150 268 -399 459 -712 546 -104 29 -242 41
-388 33z"/>
</g>
</svg>
