<svg id="Layer_1" data-name="Layer 1" xmlns="http://www.w3.org/2000/svg" viewBox="0 0 370 418.34"><defs><style>.cls-1{fill:#bbf0f8;}.cls-2{fill:#c79c73;}.cls-3{fill:#b78963;}.cls-4{fill:#dffaff;}.cls-5{fill:#17bd5a;}.cls-6{fill:#00a141;}</style></defs><title>elixir_small</title><path class="cls-1" d="M374,236a184.76,184.76,0,0,1-8.68,56.15c-2.79.53-5.96,1.02-9.43,1.42a177.185,177.185,0,0,0-2.06-120.8,108.8689,108.8689,0,0,0,5.04-10.15A184.2536,184.2536,0,0,1,374,236Z" transform="translate(-4 -2.66)"/><path class="cls-2" d="M356.9,67.1l-.15.15A113.7274,113.7274,0,0,1,341,68.34,113.7679,113.7679,0,0,1,287.56,55.1l21.02-38.59A114.71,114.71,0,0,1,356.9,67.1Z" transform="translate(-4 -2.66)"/><path class="cls-3" d="M356.75,67.25,324.4,99.79a298.87,298.87,0,0,0-44.84-30.01l8-14.68A113.7679,113.7679,0,0,0,341,68.34,113.7274,113.7274,0,0,0,356.75,67.25Z" transform="translate(-4 -2.66)"/><path class="cls-1" d="M355.89,293.57c3.47-.4,6.64-.89,9.43-1.42A185.1081,185.1081,0,0,1,100.48,398.48l4.07-7.47a176.5912,176.5912,0,0,0,251.34-97.44Z" transform="translate(-4 -2.66)"/><path class="cls-4" d="M365.5,236a176.0463,176.0463,0,0,1-9.61,57.57,311.83,311.83,0,0,0-76.62-65.04,114.4309,114.4309,0,0,0,74.56-55.76A175.9785,175.9785,0,0,1,365.5,236Z" transform="translate(-4 -2.66)"/><path class="cls-1" d="M358.87,162.62a108.8689,108.8689,0,0,1-5.04,10.15,176.1966,176.1966,0,0,0-27.37-47.48c3.1-.4,6.15-.95,9.15-1.61.16.04.32.07.48.11A184.3293,184.3293,0,0,1,358.87,162.62Z" transform="translate(-4 -2.66)"/><path class="cls-5" d="M355.89,293.57c-19.93,2.31-50.07,1.44-80.39-16.07a128.614,128.614,0,0,1-48.11-49.28,115.0333,115.0333,0,0,0,51.88.31,311.83,311.83,0,0,1,76.62,65.04Z" transform="translate(-4 -2.66)"/><path class="cls-6" d="M275.5,277.5c30.32,17.51,60.46,18.38,80.39,16.07a176.5912,176.5912,0,0,1-251.34,97.44L189,236l.01-.01,15.7-15.8a112.6629,112.6629,0,0,0,22.68,8.03A128.614,128.614,0,0,0,275.5,277.5Z" transform="translate(-4 -2.66)"/><path class="cls-4" d="M353.83,172.77a114.4309,114.4309,0,0,1-74.56,55.76,318.8842,318.8842,0,0,0-56.25-26.75l75.65-76.1a114.0842,114.0842,0,0,0,12.33.66,112.6571,112.6571,0,0,0,15.46-1.05A176.1966,176.1966,0,0,1,353.83,172.77Z" transform="translate(-4 -2.66)"/><path class="cls-1" d="M335.95,123.6c.05.06.09.13.14.19-.16-.04-.32-.07-.48-.11A3.3834,3.3834,0,0,0,335.95,123.6Z" transform="translate(-4 -2.66)"/><path class="cls-1" d="M335.95,123.6a3.3834,3.3834,0,0,1-.34.08q-6.855-1.695-13.59-3.68-4.125-4.74-8.59-9.17l1.73-1.75q5.91,2.04,11.94,3.82Q331.72,118.09,335.95,123.6Z" transform="translate(-4 -2.66)"/><path class="cls-1" d="M335.61,123.68c-3,.66-6.05,1.21-9.15,1.61q-2.175-2.7-4.44-5.29Q328.755,121.995,335.61,123.68Z" transform="translate(-4 -2.66)"/><path class="cls-3" d="M324.4,99.79l-4.98,5.01a185.42,185.42,0,0,0-41.9-31.28l2.04-3.74A298.87,298.87,0,0,1,324.4,99.79Z" transform="translate(-4 -2.66)"/><path class="cls-4" d="M322.02,120q2.265,2.595,4.44,5.29A112.6571,112.6571,0,0,1,311,126.34a114.0842,114.0842,0,0,1-12.33-.66l9.94-10Q315.24,117.99,322.02,120Z" transform="translate(-4 -2.66)"/><path class="cls-1" d="M319.42,104.8q3.96,3.93,7.68,8.1-6.03-1.785-11.94-3.82Z" transform="translate(-4 -2.66)"/><path class="cls-3" d="M319.42,104.8l-4.26,4.28c-1.87-.63-3.74-1.29-5.59-1.97a177.0046,177.0046,0,0,0-36.12-26.12l4.07-7.47A185.42,185.42,0,0,1,319.42,104.8Z" transform="translate(-4 -2.66)"/><path class="cls-1" d="M313.43,110.83q4.47,4.425,8.59,9.17-6.78-2.01-13.41-4.32Z" transform="translate(-4 -2.66)"/><path class="cls-1" d="M315.16,109.08l-1.73,1.75c-1.27-1.26-2.55-2.5-3.86-3.72C311.42,107.79,313.29,108.45,315.16,109.08Z" transform="translate(-4 -2.66)"/><path class="cls-1" d="M313.43,110.83l-4.82,4.85a296.9591,296.9591,0,0,1-43.58-19.23l4.15-7.61a297.0063,297.0063,0,0,0,40.39,18.27C310.88,108.33,312.16,109.57,313.43,110.83Z" transform="translate(-4 -2.66)"/><path class="cls-3" d="M308.61,115.68l-9.94,10a113.4843,113.4843,0,0,1-42.35-13.24l8.71-15.99A296.9591,296.9591,0,0,0,308.61,115.68Z" transform="translate(-4 -2.66)"/><path class="cls-2" d="M308.58,16.51,287.56,55.1A114.76,114.76,0,0,1,238.04,3.78a114.4272,114.4272,0,0,1,70.54,12.73Z" transform="translate(-4 -2.66)"/><path class="cls-4" d="M298.67,125.68l-75.65,76.1c-2.55-.92-5.03-1.78-7.42-2.58a1.026,1.026,0,0,0-.14-.04v-.01l.04-.1c-.42-1.55-1.14-4.13-2.29-7.48l43.11-79.13A113.4843,113.4843,0,0,0,298.67,125.68Z" transform="translate(-4 -2.66)"/><path class="cls-3" d="M287.56,55.1l-8,14.68a296.4571,296.4571,0,0,0-51.53-22.13L237.1,3.91c.31-.06.62-.1.94-.13A114.76,114.76,0,0,0,287.56,55.1Z" transform="translate(-4 -2.66)"/><path class="cls-3" d="M279.56,69.78l-2.04,3.74a183.4634,183.4634,0,0,0-50.97-18.7l1.48-7.17A296.4571,296.4571,0,0,1,279.56,69.78Z" transform="translate(-4 -2.66)"/><path class="cls-3" d="M277.52,73.52l-4.07,7.47a174.7208,174.7208,0,0,0-41.58-16.24q-3.21-2.43-6.36-4.95l1.04-4.98A183.4634,183.4634,0,0,1,277.52,73.52Z" transform="translate(-4 -2.66)"/><path class="cls-3" d="M273.45,80.99a177.0046,177.0046,0,0,1,36.12,26.12,297.0063,297.0063,0,0,1-40.39-18.27Z" transform="translate(-4 -2.66)"/><path class="cls-3" d="M273.45,80.99l-4.27,7.85a297.2482,297.2482,0,0,1-37.31-24.09A174.7208,174.7208,0,0,1,273.45,80.99Z" transform="translate(-4 -2.66)"/><path class="cls-1" d="M269.18,88.84l-4.15,7.61a298.1526,298.1526,0,0,1-41.49-27.1l1.28-6.21c2.37.49,4.72,1.02,7.05,1.61A297.2482,297.2482,0,0,0,269.18,88.84Z" transform="translate(-4 -2.66)"/><path class="cls-3" d="M265.03,96.45l-8.71,15.99a114.61,114.61,0,0,1-35.47-30.11l2.69-12.98A298.1526,298.1526,0,0,0,265.03,96.45Z" transform="translate(-4 -2.66)"/><path class="cls-5" d="M223.02,201.78a318.8842,318.8842,0,0,1,56.25,26.75,115.0333,115.0333,0,0,1-51.88-.31A136.3647,136.3647,0,0,1,217.83,207Z" transform="translate(-4 -2.66)"/><path class="cls-4" d="M256.32,112.44l-43.11,79.13a141.2882,141.2882,0,0,0-10.25-22.92l17.89-86.32A114.61,114.61,0,0,0,256.32,112.44Z" transform="translate(-4 -2.66)"/><path class="cls-1" d="M225.51,59.8q3.15,2.52,6.36,4.95c-2.33-.59-4.68-1.12-7.05-1.61Z" transform="translate(-4 -2.66)"/><path class="cls-1" d="M226.55,54.82l-1.04,4.98q-4.05-3.225-7.98-6.61Q222.075,53.895,226.55,54.82Z" transform="translate(-4 -2.66)"/><path class="cls-1" d="M225.51,59.8l-.69,3.34q-5.595-1.155-11.33-1.95-4.71-4.005-9.26-8.21c-.19-.47-.36-.93-.53-1.4,4.66.36,9.28.9,13.83,1.61Q221.46,56.58,225.51,59.8Z" transform="translate(-4 -2.66)"/><path class="cls-1" d="M224.82,63.14l-1.28,6.21q-5.115-3.96-10.05-8.16Q219.22,61.985,224.82,63.14Z" transform="translate(-4 -2.66)"/><path class="cls-4" d="M223.54,69.35l-2.69,12.98a114.0158,114.0158,0,0,1-13.44-21.88q3.06.315,6.08.74Q218.425,65.375,223.54,69.35Z" transform="translate(-4 -2.66)"/><path class="cls-5" d="M223.02,201.78,217.83,207c-1.17-3.39-1.91-5.99-2.33-7.5l.1-.3C217.99,200,220.47,200.86,223.02,201.78Z" transform="translate(-4 -2.66)"/><path class="cls-4" d="M220.85,82.33l-17.89,86.32A133.7311,133.7311,0,0,0,154.5,118.5a131.8128,131.8128,0,0,0-14.68-7.53,113.5608,113.5608,0,0,1,13.29-47.81,178.1548,178.1548,0,0,1,54.3-2.71A114.0158,114.0158,0,0,0,220.85,82.33Z" transform="translate(-4 -2.66)"/><path class="cls-6" d="M217.83,207a136.3647,136.3647,0,0,0,9.56,21.22,112.6629,112.6629,0,0,1-22.68-8.03Z" transform="translate(-4 -2.66)"/><path class="cls-6" d="M215.46,199.15v.01a1.026,1.026,0,0,1,.14.04l-.1.3c.42,1.51,1.16,4.11,2.33,7.5l-13.12,13.19q-2.82-1.335-5.55-2.84l14.05-25.78c1.15,3.35,1.87,5.93,2.29,7.48Z" transform="translate(-4 -2.66)"/><path class="cls-6" d="M213.21,191.57l-14.05,25.78q-2.865-1.56-5.61-3.29l9.41-45.41A141.2882,141.2882,0,0,1,213.21,191.57Z" transform="translate(-4 -2.66)"/><path class="cls-1" d="M213.49,61.19q-3.015-.42-6.08-.74-1.725-3.66-3.18-7.47Q208.775,57.18,213.49,61.19Z" transform="translate(-4 -2.66)"/><path class="cls-6" d="M204.71,220.19l-15.7,15.8,10.15-18.64Q201.89,218.85,204.71,220.19Z" transform="translate(-4 -2.66)"/><path class="cls-1" d="M204.23,52.98q1.455,3.81,3.18,7.47a178.1548,178.1548,0,0,0-54.3,2.71,113.3274,113.3274,0,0,1,5.84-9.73A186.0434,186.0434,0,0,1,189,51q6.87,0,13.63.5C203.16,52,203.69,52.49,204.23,52.98Z" transform="translate(-4 -2.66)"/><path class="cls-1" d="M203.7,51.58c.17.47.34.93.53,1.4-.54-.49-1.07-.98-1.6-1.48C202.99,51.52,203.35,51.55,203.7,51.58Z" transform="translate(-4 -2.66)"/><path class="cls-6" d="M202.96,168.65l-9.41,45.41A114.2281,114.2281,0,0,1,139.66,117q0-3.03.16-6.03a131.8128,131.8128,0,0,1,14.68,7.53A133.7311,133.7311,0,0,1,202.96,168.65Z" transform="translate(-4 -2.66)"/><path class="cls-6" d="M199.16,217.35l-10.15,18.64L189,236l4.55-21.94Q196.295,215.785,199.16,217.35Z" transform="translate(-4 -2.66)"/><path class="cls-6" d="M193.55,214.06,189,236,104.55,391.01A176.5164,176.5164,0,0,1,76.4,100.09a136.7562,136.7562,0,0,1,63.42,10.88q-.165,3-.16,6.03A114.2281,114.2281,0,0,0,193.55,214.06Z" transform="translate(-4 -2.66)"/><path class="cls-1" d="M158.95,53.43a113.3274,113.3274,0,0,0-5.84,9.73A175.6539,175.6539,0,0,0,76.4,100.09a135.0569,135.0569,0,0,0-14.78,1.76A184.4154,184.4154,0,0,1,158.95,53.43Z" transform="translate(-4 -2.66)"/><path class="cls-4" d="M153.11,63.16a113.5608,113.5608,0,0,0-13.29,47.81A136.7562,136.7562,0,0,0,76.4,100.09,175.6539,175.6539,0,0,1,153.11,63.16Z" transform="translate(-4 -2.66)"/><path class="cls-1" d="M104.55,391.01l-4.07,7.47A185.02,185.02,0,0,1,61.62,101.85a135.0569,135.0569,0,0,1,14.78-1.76,176.5164,176.5164,0,0,0,28.15,290.92Z" transform="translate(-4 -2.66)"/><path class="cls-6" d="M35,187c-2.3036-.8969,2.7739-34.8107,27-59,6.2731-6.2636,11.2642-9.313,15.2037-11.2159C90.2444,110.4855,109.9288,107.9769,121,118c.9055.82,7.43,6.7263,6,12-.3885,1.4336-1.9714,5.0582-23,10-14.6593,3.445-17.991,2.6472-27,6a77.135,77.135,0,0,0-17,9C41.085,168.5135,36.7561,187.6837,35,187Z" transform="translate(-4 -2.66)"/></svg>