<svg id="Layer_1" data-name="Layer 1" xmlns="http://www.w3.org/2000/svg" viewBox="0 0 370 418.34"><defs><style>.cls-1{fill:#bbf0f8;}.cls-2{fill:#c79c73;}.cls-3{fill:#dffaff;}.cls-4{fill:#b78963;}.cls-5{fill:#39c672;}.cls-6{fill:#17bd5a;}.cls-7{fill:#00a141;}</style></defs><title>elixir_med</title><path class="cls-1" d="M394,258a184.76,184.76,0,0,1-8.68,56.15c-2.79.53-5.96,1.02-9.43,1.42a177.185,177.185,0,0,0-2.06-120.8,108.8689,108.8689,0,0,0,5.04-10.15A184.2536,184.2536,0,0,1,394,258Z" transform="translate(-24 -24.66)"/><path class="cls-1" d="M378.87,184.62a108.8689,108.8689,0,0,1-5.04,10.15,176.1966,176.1966,0,0,0-27.37-47.48c3.1-.4,6.15-.95,9.15-1.61.16.04.32.07.48.11A184.3293,184.3293,0,0,1,378.87,184.62Z" transform="translate(-24 -24.66)"/><path class="cls-2" d="M328.58,38.51A114.71,114.71,0,0,1,376.9,89.1l-.15.15A113.7274,113.7274,0,0,1,361,90.34,113.6791,113.6791,0,0,1,307.56,77.1Z" transform="translate(-24 -24.66)"/><path class="cls-1" d="M355.95,145.6c.05.06.09.13.14.19-.16-.04-.32-.07-.48-.11A3.3834,3.3834,0,0,0,355.95,145.6Z" transform="translate(-24 -24.66)"/><path class="cls-1" d="M355.61,145.68c-3,.66-6.05,1.21-9.15,1.61q-2.175-2.7-4.44-5.29Q348.755,143.995,355.61,145.68Z" transform="translate(-24 -24.66)"/><path class="cls-3" d="M342.02,142q2.265,2.595,4.44,5.29A112.6571,112.6571,0,0,1,331,148.34a114.0842,114.0842,0,0,1-12.33-.66l9.94-10Q335.24,139.99,342.02,142Z" transform="translate(-24 -24.66)"/><path class="cls-1" d="M339.42,126.8q3.96,3.93,7.68,8.1-6.03-1.785-11.94-3.82Z" transform="translate(-24 -24.66)"/><path class="cls-1" d="M342.02,142q-4.125-4.74-8.59-9.17l1.73-1.75q5.91,2.04,11.94,3.82,4.62,5.19,8.85,10.7a3.3834,3.3834,0,0,1-.34.08Q348.755,143.985,342.02,142Z" transform="translate(-24 -24.66)"/><path class="cls-1" d="M333.43,132.83q4.47,4.425,8.59,9.17-6.78-2.01-13.41-4.32Z" transform="translate(-24 -24.66)"/><path class="cls-1" d="M335.16,131.08l-1.73,1.75c-1.27-1.26-2.55-2.5-3.86-3.72C331.42,129.79,333.29,130.45,335.16,131.08Z" transform="translate(-24 -24.66)"/><path class="cls-4" d="M307.56,77.1A113.6791,113.6791,0,0,0,361,90.34a113.7274,113.7274,0,0,0,15.75-1.09L344.4,121.79a298.87,298.87,0,0,0-44.84-30.01Z" transform="translate(-24 -24.66)"/><path class="cls-4" d="M299.56,91.78a298.87,298.87,0,0,1,44.84,30.01l-4.98,5.01a185.42,185.42,0,0,0-41.9-31.28Z" transform="translate(-24 -24.66)"/><path class="cls-4" d="M329.57,129.11a175.7089,175.7089,0,0,0-36.12-26.12l4.07-7.47a185.42,185.42,0,0,1,41.9,31.28l-4.26,4.28C333.29,130.45,331.42,129.79,329.57,129.11Z" transform="translate(-24 -24.66)"/><path class="cls-4" d="M293.45,102.99a175.7089,175.7089,0,0,1,36.12,26.12,297.0063,297.0063,0,0,1-40.39-18.27Z" transform="translate(-24 -24.66)"/><path class="cls-1" d="M289.18,110.84a297.0063,297.0063,0,0,0,40.39,18.27c1.31,1.22,2.59,2.46,3.86,3.72l-4.82,4.85a298.4972,298.4972,0,0,1-43.58-19.23Z" transform="translate(-24 -24.66)"/><path class="cls-5" d="M375.89,315.57c-19.93,2.31-50.07,1.44-80.39-16.07a128.614,128.614,0,0,1-48.11-49.28,115.0333,115.0333,0,0,0,51.88.31,311.83,311.83,0,0,1,76.62,65.04Z" transform="translate(-24 -24.66)"/><path class="cls-4" d="M285.03,118.45a298.4972,298.4972,0,0,0,43.58,19.23l-9.94,10a113.4843,113.4843,0,0,1-42.35-13.24Z" transform="translate(-24 -24.66)"/><path class="cls-3" d="M299.27,250.53a114.4309,114.4309,0,0,0,74.56-55.76,177.185,177.185,0,0,1,2.06,120.8,311.83,311.83,0,0,0-76.62-65.04Z" transform="translate(-24 -24.66)"/><path class="cls-3" d="M243.02,223.78l75.65-76.1a114.0842,114.0842,0,0,0,12.33.66,112.6571,112.6571,0,0,0,15.46-1.05,176.1966,176.1966,0,0,1,27.37,47.48,114.4309,114.4309,0,0,1-74.56,55.76A318.8842,318.8842,0,0,0,243.02,223.78Z" transform="translate(-24 -24.66)"/><path class="cls-4" d="M299.56,91.78l-2.04,3.74a183.4634,183.4634,0,0,0-50.97-18.7l1.48-7.17A296.4571,296.4571,0,0,1,299.56,91.78Z" transform="translate(-24 -24.66)"/><path class="cls-4" d="M297.52,95.52l-4.07,7.47a174.7208,174.7208,0,0,0-41.58-16.24q-3.21-2.43-6.36-4.95l1.04-4.98A183.4634,183.4634,0,0,1,297.52,95.52Z" transform="translate(-24 -24.66)"/><path class="cls-4" d="M293.45,102.99l-4.27,7.85a297.2482,297.2482,0,0,1-37.31-24.09A174.7208,174.7208,0,0,1,293.45,102.99Z" transform="translate(-24 -24.66)"/><path class="cls-1" d="M289.18,110.84l-4.15,7.61a298.1526,298.1526,0,0,1-41.49-27.1l1.28-6.21c2.37.49,4.72,1.02,7.05,1.61A297.2482,297.2482,0,0,0,289.18,110.84Z" transform="translate(-24 -24.66)"/><path class="cls-4" d="M285.03,118.45l-8.71,15.99a114.61,114.61,0,0,1-35.47-30.11l2.69-12.98A298.1526,298.1526,0,0,0,285.03,118.45Z" transform="translate(-24 -24.66)"/><path class="cls-5" d="M243.02,223.78a318.8842,318.8842,0,0,1,56.25,26.75,115.0333,115.0333,0,0,1-51.88-.31A136.3647,136.3647,0,0,1,237.83,229Z" transform="translate(-24 -24.66)"/><path class="cls-2" d="M274,24.66a113.7968,113.7968,0,0,1,54.58,13.85L307.56,77.1a114.76,114.76,0,0,1-49.52-51.32A113.4661,113.4661,0,0,1,274,24.66Z" transform="translate(-24 -24.66)"/><path class="cls-3" d="M276.32,134.44l-43.11,79.13a141.2882,141.2882,0,0,0-10.25-22.92l17.89-86.32A114.61,114.61,0,0,0,276.32,134.44Z" transform="translate(-24 -24.66)"/><path class="cls-4" d="M258.04,25.78A114.76,114.76,0,0,0,307.56,77.1l-8,14.68a296.4571,296.4571,0,0,0-51.53-22.13l9.07-43.74C257.41,25.85,257.72,25.81,258.04,25.78Z" transform="translate(-24 -24.66)"/><path class="cls-1" d="M245.51,81.8q3.15,2.52,6.36,4.95c-2.33-.59-4.68-1.12-7.05-1.61Z" transform="translate(-24 -24.66)"/><path class="cls-1" d="M246.55,76.82l-1.04,4.98q-4.05-3.225-7.98-6.61Q242.075,75.895,246.55,76.82Z" transform="translate(-24 -24.66)"/><path class="cls-1" d="M244.82,85.14l-1.28,6.21q-5.115-3.96-10.05-8.16Q239.22,83.985,244.82,85.14Z" transform="translate(-24 -24.66)"/><path class="cls-3" d="M243.54,91.35l-2.69,12.98a114.0158,114.0158,0,0,1-13.44-21.88q3.06.315,6.08.74Q238.425,87.375,243.54,91.35Z" transform="translate(-24 -24.66)"/><path class="cls-5" d="M243.02,223.78,237.83,229c-1.17-3.39-1.91-5.99-2.33-7.5l.1-.3C237.99,222,240.47,222.86,243.02,223.78Z" transform="translate(-24 -24.66)"/><path class="cls-6" d="M237.83,229a136.3647,136.3647,0,0,0,9.56,21.22,112.6629,112.6629,0,0,1-22.68-8.03Z" transform="translate(-24 -24.66)"/><path class="cls-6" d="M235.46,221.15v.01a1.026,1.026,0,0,1,.14.04l-.1.3c.42,1.51,1.16,4.11,2.33,7.5l-13.12,13.19q-2.82-1.335-5.55-2.84l14.05-25.78c1.15,3.35,1.87,5.93,2.29,7.48Z" transform="translate(-24 -24.66)"/><path class="cls-3" d="M276.32,134.44a113.4843,113.4843,0,0,0,42.35,13.24l-75.65,76.1c-2.55-.92-5.03-1.78-7.42-2.58a1.026,1.026,0,0,0-.14-.04v-.01l.04-.1c-.42-1.55-1.14-4.13-2.29-7.48Z" transform="translate(-24 -24.66)"/><path class="cls-6" d="M233.21,213.57l-14.05,25.78q-2.865-1.56-5.61-3.29l9.41-45.41A141.2882,141.2882,0,0,1,233.21,213.57Z" transform="translate(-24 -24.66)"/><path class="cls-1" d="M223.7,73.58c4.66.36,9.28.9,13.83,1.61q3.93,3.39,7.98,6.61l-.69,3.34q-5.595-1.155-11.33-1.95-4.725-4.005-9.26-8.21C224.04,74.51,223.87,74.05,223.7,73.58Z" transform="translate(-24 -24.66)"/><path class="cls-1" d="M227.41,82.45q-1.725-3.66-3.18-7.47,4.545,4.215,9.26,8.21Q230.475,82.77,227.41,82.45Z" transform="translate(-24 -24.66)"/><path class="cls-1" d="M227.41,82.45a178.1548,178.1548,0,0,0-54.3,2.71,113.3274,113.3274,0,0,1,5.84-9.73A186.0434,186.0434,0,0,1,209,73q6.87,0,13.63.5c.53.5,1.06.99,1.6,1.48Q225.685,78.79,227.41,82.45Z" transform="translate(-24 -24.66)"/><path class="cls-6" d="M224.71,242.19l-15.7,15.8,10.15-18.64Q221.89,240.85,224.71,242.19Z" transform="translate(-24 -24.66)"/><path class="cls-1" d="M223.7,73.58c.17.47.34.93.53,1.4-.54-.49-1.07-.98-1.6-1.48C222.99,73.52,223.35,73.55,223.7,73.58Z" transform="translate(-24 -24.66)"/><path class="cls-3" d="M222.96,190.65A133.7311,133.7311,0,0,0,174.5,140.5a131.8128,131.8128,0,0,0-14.68-7.53,113.5608,113.5608,0,0,1,13.29-47.81,178.1548,178.1548,0,0,1,54.3-2.71,114.0158,114.0158,0,0,0,13.44,21.88Z" transform="translate(-24 -24.66)"/><path class="cls-6" d="M219.16,239.35l-10.15,18.64L209,258l4.55-21.94Q216.295,237.785,219.16,239.35Z" transform="translate(-24 -24.66)"/><path class="cls-6" d="M213.55,236.06A114.2281,114.2281,0,0,1,159.66,139q0-3.03.16-6.03a131.8128,131.8128,0,0,1,14.68,7.53,133.7311,133.7311,0,0,1,48.46,50.15Z" transform="translate(-24 -24.66)"/><path class="cls-1" d="M178.95,75.43a113.3274,113.3274,0,0,0-5.84,9.73A175.6539,175.6539,0,0,0,96.4,122.09a135.0569,135.0569,0,0,0-14.78,1.76A184.4154,184.4154,0,0,1,178.95,75.43Z" transform="translate(-24 -24.66)"/><path class="cls-1" d="M124.55,413.01a176.5912,176.5912,0,0,0,251.34-97.44c3.47-.4,6.64-.89,9.43-1.42A185.1081,185.1081,0,0,1,120.48,420.48Z" transform="translate(-24 -24.66)"/><path class="cls-3" d="M173.11,85.16a113.5608,113.5608,0,0,0-13.29,47.81A136.7562,136.7562,0,0,0,96.4,122.09,175.6539,175.6539,0,0,1,173.11,85.16Z" transform="translate(-24 -24.66)"/><path class="cls-6" d="M209,258,124.55,413.01A176.5164,176.5164,0,0,1,96.4,122.09a136.7562,136.7562,0,0,1,63.42,10.88q-.165,3-.16,6.03a114.2281,114.2281,0,0,0,53.89,97.06Z" transform="translate(-24 -24.66)"/><path class="cls-6" d="M209,434.5a175.5315,175.5315,0,0,1-84.45-21.49L209,258l.01-.01,15.7-15.8a112.6629,112.6629,0,0,0,22.68,8.03A128.614,128.614,0,0,0,295.5,299.5c30.32,17.51,60.46,18.38,80.39,16.07A176.5578,176.5578,0,0,1,209,434.5Z" transform="translate(-24 -24.66)"/><path class="cls-1" d="M124.55,413.01l-4.07,7.47A185.02,185.02,0,0,1,81.62,123.85a135.0569,135.0569,0,0,1,14.78-1.76,176.5164,176.5164,0,0,0,28.15,290.92Z" transform="translate(-24 -24.66)"/><path class="cls-7" d="M325.4216,325.2388a100.2986,100.2986,0,0,1-4.5774,15.3584,121.9413,121.9413,0,0,1-11.3192,21.688c-5.9952,9.3782-13.55,17.66-21.4145,25.1823a106.38,106.38,0,0,1-34.0163,21.2941c-50.7859,20.1608-106.3067-.3259-145.1472-34.0347C76.5551,346.6147,44.03,305.7344,47.5889,261.6178c1.2893-15.98,6.0805-30.309,14.9947-43.1445,8.7229-12.56,20.9594-22.7242,34.1627-31.87,12.63-8.7493,27.8942-16.7027,43.071-19.0059,16.03-2.4327,28.6742-1.1592,40.3258,7.8768,9.239,7.165,15.0581,17.1072,20.7249,28.7059,5.77,11.809,10.604,25.016,16.3857,36.99,5.7385,11.8847,12.3039,23.57,20.6481,33.9154,9.1714,11.371,20.6392,19.8459,32.92,27.8381a92.3278,92.3278,0,0,0,10.8221,5.6975c-39.4981,30.79-99.143,23.6261-144.4314,15.0036a53.603,53.603,0,0,0,8.3266,14.54c3.9426,5.0852,9.6476,9.9855,16.8249,14.4922,7.6917,4.83,17.9087,8.43,26.6352,10.2581a93.8246,93.8246,0,0,0,34.4923.3815c12.6437-2.1968,25.687-6.9039,36.3869-15.7047,8.35-6.8681,13.0074-13.0908,15.3605-17.561C292.4836,333.2548,309.4352,333.75,325.4216,325.2388ZM208.0379,284.7562A80.2447,80.2447,0,0,0,203.041,273.05a102.3875,102.3875,0,0,0-7.7154-12.7225,93.0789,93.0789,0,0,0-10.4438-12.421,44.47,44.47,0,0,0-14.9485-9.83c-5.8606-2.3892-11.7254-3.4153-16.6-2.3951a26.5065,26.5065,0,0,0-12.4723,6.105,34.4015,34.4015,0,0,0-8.1172,11.0579,30.4148,30.4148,0,0,0-3.0163,13.3132C155.4932,273.3561,181.543,280.7255,208.0379,284.7562Z" transform="translate(-24 -24.66)"/><path class="cls-7" d="M55,209c-2.3036-.8969,2.7739-34.8107,27-59,6.2731-6.2636,11.2642-9.313,15.2037-11.2159C110.2444,132.4855,129.9288,129.9769,141,140c.9055.82,7.43,6.7263,6,12-.3885,1.4336-1.9714,5.0582-23,10-14.6593,3.445-17.991,2.6472-27,6a77.135,77.135,0,0,0-17,9C61.085,190.5135,56.7561,209.6837,55,209Z" transform="translate(-24 -24.66)"/><path class="cls-7" d="M332,332c-1.5833,3.0405-.2975,4.6414-1,12a34.4252,34.4252,0,0,1-2,10,29.3044,29.3044,0,0,1-7,10c-6.306,6.5075-9.7336,6.1052-12,11-1.6512,3.5662-2.0593,8.5907,0,10,2.9316,2.0062,10.1071-3.8323,14-7,7.83-6.3711,12.6252-12.5737,22-26,13.24-18.9614,14.2516-21.738,13-24-2.4841-4.4894-12.5155-4.478-19-2C337.7766,326.85,333.9132,328.326,332,332Z" transform="translate(-24 -24.66)"/><path class="cls-7" d="M302,387a4.6174,4.6174,0,1,0-1,9,4.667,4.667,0,0,0,1-9Z" transform="translate(-24 -24.66)"/></svg>