<svg id="Layer_1" data-name="Layer 1" xmlns="http://www.w3.org/2000/svg" viewBox="0 0 598 548.71"><defs><style>.cls-1{fill:#bbf0f8;}.cls-2{fill:#17bd5a;}.cls-3{fill:#dffaff;}.cls-4{fill:#c79c73;}.cls-5{fill:#b78963;}.cls-6{fill:#39c672;}.cls-7,.cls-8{fill:#00a141;}.cls-8{font-size:122.81px;font-family:ColonnaMT, Colonna MT;}</style></defs><title>elixirW_full</title><path class="cls-1" d="M569,318a184.76,184.76,0,0,1-8.68,56.15c-2.79.53-6,1-9.43,1.42a177.18,177.18,0,0,0-2.06-120.8,108.87,108.87,0,0,0,5-10.15A184.25,184.25,0,0,1,569,318Z" transform="translate(-85 -84.66)"/><path class="cls-1" d="M553.87,244.62a108.87,108.87,0,0,1-5,10.15,176.2,176.2,0,0,0-27.37-47.48c3.1-.4,6.15-.95,9.15-1.61l.48.11A184.33,184.33,0,0,1,553.87,244.62Z" transform="translate(-85 -84.66)"/><path class="cls-1" d="M560.32,374.15A185.11,185.11,0,0,1,295.48,480.48l4.07-7.47a176.59,176.59,0,0,0,251.34-97.44C554.36,375.17,557.53,374.68,560.32,374.15Z" transform="translate(-85 -84.66)"/><path class="cls-1" d="M531,205.6l.14.19-.48-.11Z" transform="translate(-85 -84.66)"/><path class="cls-1" d="M530.61,205.68c-3,.66-6.05,1.21-9.15,1.61q-2.18-2.7-4.44-5.29Q523.76,204,530.61,205.68Z" transform="translate(-85 -84.66)"/><path class="cls-2" d="M550.89,375.57A176.59,176.59,0,0,1,299.55,473L384,318h0l15.7-15.8a112.66,112.66,0,0,0,22.68,8A128.61,128.61,0,0,0,470.5,359.5C500.82,377,531,377.88,550.89,375.57Z" transform="translate(-85 -84.66)"/><path class="cls-3" d="M517,202q2.26,2.59,4.44,5.29A112.66,112.66,0,0,1,506,208.34a114.08,114.08,0,0,1-12.33-.66l9.94-10Q510.24,200,517,202Z" transform="translate(-85 -84.66)"/><path class="cls-1" d="M514.42,186.8q4,3.93,7.68,8.1-6-1.78-11.94-3.82Z" transform="translate(-85 -84.66)"/><path class="cls-1" d="M510.16,191.08q5.91,2,11.94,3.82,4.62,5.19,8.85,10.7l-.34.08Q523.75,204,517,202q-4.12-4.74-8.59-9.17Z" transform="translate(-85 -84.66)"/><path class="cls-1" d="M508.43,192.83q4.47,4.42,8.59,9.17-6.78-2-13.41-4.32Z" transform="translate(-85 -84.66)"/><path class="cls-1" d="M510.16,191.08l-1.73,1.75c-1.27-1.26-2.55-2.5-3.86-3.72C506.42,189.79,508.29,190.45,510.16,191.08Z" transform="translate(-85 -84.66)"/><path class="cls-4" d="M503.58,98.51A114.71,114.71,0,0,1,551.9,149.1l-.15.15a114.44,114.44,0,0,1-69.19-12.15Z" transform="translate(-85 -84.66)"/><path class="cls-4" d="M503.58,98.51l-21,38.59A114.76,114.76,0,0,1,433,85.78a114.43,114.43,0,0,1,70.54,12.73Z" transform="translate(-85 -84.66)"/><path class="cls-5" d="M519.4,181.79a298.87,298.87,0,0,0-44.84-30l8-14.68a114.44,114.44,0,0,0,69.19,12.15Z" transform="translate(-85 -84.66)"/><path class="cls-5" d="M514.42,186.8a185.42,185.42,0,0,0-41.9-31.28l2-3.74a298.87,298.87,0,0,1,44.84,30Z" transform="translate(-85 -84.66)"/><path class="cls-6" d="M550.89,375.57C531,377.88,500.82,377,470.5,359.5a128.61,128.61,0,0,1-48.11-49.28,115,115,0,0,0,51.88.31,311.83,311.83,0,0,1,76.62,65Z" transform="translate(-85 -84.66)"/><path class="cls-5" d="M504.57,189.11A175.71,175.71,0,0,0,468.45,163l4.07-7.47a185.42,185.42,0,0,1,41.9,31.28l-4.26,4.28C508.29,190.45,506.42,189.79,504.57,189.11Z" transform="translate(-85 -84.66)"/><path class="cls-5" d="M504.57,189.11a297,297,0,0,1-40.39-18.27l4.27-7.85A175.71,175.71,0,0,1,504.57,189.11Z" transform="translate(-85 -84.66)"/><path class="cls-1" d="M503.61,197.68A298.5,298.5,0,0,1,460,178.45l4.15-7.61a297,297,0,0,0,40.39,18.27c1.31,1.22,2.59,2.46,3.86,3.72Z" transform="translate(-85 -84.66)"/><path class="cls-3" d="M474.27,310.53a114.43,114.43,0,0,0,74.56-55.76,177.18,177.18,0,0,1,2.06,120.8,311.83,311.83,0,0,0-76.62-65Z" transform="translate(-85 -84.66)"/><path class="cls-5" d="M493.67,207.68a113.48,113.48,0,0,1-42.35-13.24l8.71-16a298.5,298.5,0,0,0,43.58,19.23Z" transform="translate(-85 -84.66)"/><path class="cls-3" d="M548.83,254.77a114.43,114.43,0,0,1-74.56,55.76A318.88,318.88,0,0,0,418,283.78l75.65-76.1a114.08,114.08,0,0,0,12.33.66,112.66,112.66,0,0,0,15.46-1.05A176.2,176.2,0,0,1,548.83,254.77Z" transform="translate(-85 -84.66)"/><path class="cls-5" d="M482.56,137.1l-8,14.68A296.46,296.46,0,0,0,423,129.65l9.07-43.74c.31-.06.62-.1.94-.13A114.76,114.76,0,0,0,482.56,137.1Z" transform="translate(-85 -84.66)"/><path class="cls-5" d="M474.56,151.78l-2,3.74a183.46,183.46,0,0,0-51-18.7l1.48-7.17A296.46,296.46,0,0,1,474.56,151.78Z" transform="translate(-85 -84.66)"/><path class="cls-5" d="M472.52,155.52,468.45,163a174.72,174.72,0,0,0-41.58-16.24q-3.21-2.43-6.36-4.95l1-5A183.46,183.46,0,0,1,472.52,155.52Z" transform="translate(-85 -84.66)"/><path class="cls-5" d="M468.45,163l-4.27,7.85a297.25,297.25,0,0,1-37.31-24.09A174.72,174.72,0,0,1,468.45,163Z" transform="translate(-85 -84.66)"/><path class="cls-1" d="M464.18,170.84,460,178.45a298.15,298.15,0,0,1-41.49-27.1l1.28-6.21c2.37.49,4.72,1,7.05,1.61A297.25,297.25,0,0,0,464.18,170.84Z" transform="translate(-85 -84.66)"/><path class="cls-5" d="M460,178.45l-8.71,16a114.61,114.61,0,0,1-35.47-30.11l2.69-13A298.15,298.15,0,0,0,460,178.45Z" transform="translate(-85 -84.66)"/><path class="cls-6" d="M418,283.78a318.88,318.88,0,0,1,56.25,26.75,115,115,0,0,1-51.88-.31A136.36,136.36,0,0,1,412.83,289Z" transform="translate(-85 -84.66)"/><path class="cls-3" d="M451.32,194.44l-43.11,79.13A141.29,141.29,0,0,0,398,250.65l17.89-86.32A114.61,114.61,0,0,0,451.32,194.44Z" transform="translate(-85 -84.66)"/><path class="cls-1" d="M420.51,141.8q3.15,2.52,6.36,4.95c-2.33-.59-4.68-1.12-7.05-1.61Z" transform="translate(-85 -84.66)"/><path class="cls-1" d="M421.55,136.82l-1,5q-4-3.23-8-6.61Q417.08,135.89,421.55,136.82Z" transform="translate(-85 -84.66)"/><path class="cls-1" d="M420.51,141.8l-.69,3.34q-5.6-1.15-11.33-1.95-4.71-4-9.26-8.21c-.19-.47-.36-.93-.53-1.4,4.66.36,9.28.9,13.83,1.61Q416.46,138.58,420.51,141.8Z" transform="translate(-85 -84.66)"/><path class="cls-1" d="M419.82,145.14l-1.28,6.21q-5.12-4-10.05-8.16Q414.22,144,419.82,145.14Z" transform="translate(-85 -84.66)"/><path class="cls-3" d="M418.54,151.35l-2.69,13a114,114,0,0,1-13.44-21.88q3.06.31,6.08.74Q413.42,147.38,418.54,151.35Z" transform="translate(-85 -84.66)"/><path class="cls-6" d="M418,283.78,412.83,289c-1.17-3.39-1.91-6-2.33-7.5l.1-.3C413,282,415.47,282.86,418,283.78Z" transform="translate(-85 -84.66)"/><path class="cls-3" d="M415.85,164.33,398,250.65A133.73,133.73,0,0,0,349.5,200.5,131.81,131.81,0,0,0,334.82,193a113.56,113.56,0,0,1,13.29-47.81,178.15,178.15,0,0,1,54.3-2.71A114,114,0,0,0,415.85,164.33Z" transform="translate(-85 -84.66)"/><path class="cls-2" d="M412.83,289a136.36,136.36,0,0,0,9.56,21.22,112.66,112.66,0,0,1-22.68-8Z" transform="translate(-85 -84.66)"/><path class="cls-2" d="M410.5,281.5c.42,1.51,1.16,4.11,2.33,7.5l-13.12,13.19q-2.82-1.33-5.55-2.84l14-25.78c1.15,3.35,1.87,5.93,2.29,7.48l0,.1h0l.14,0Z" transform="translate(-85 -84.66)"/><path class="cls-3" d="M451.32,194.44a113.48,113.48,0,0,0,42.35,13.24L418,283.78c-2.55-.92-5-1.78-7.42-2.58l-.14,0h0l0-.1c-.42-1.55-1.14-4.13-2.29-7.48Z" transform="translate(-85 -84.66)"/><path class="cls-2" d="M408.21,273.57l-14,25.78q-2.87-1.56-5.61-3.29L398,250.65A141.29,141.29,0,0,1,408.21,273.57Z" transform="translate(-85 -84.66)"/><path class="cls-1" d="M408.49,143.19q-3-.42-6.08-.74-1.73-3.66-3.18-7.47Q403.78,139.18,408.49,143.19Z" transform="translate(-85 -84.66)"/><path class="cls-2" d="M399.71,302.19,384,318l10.15-18.64Q396.89,300.85,399.71,302.19Z" transform="translate(-85 -84.66)"/><path class="cls-1" d="M399.23,135q1.45,3.81,3.18,7.47a178.15,178.15,0,0,0-54.3,2.71,113.33,113.33,0,0,1,5.84-9.73A186,186,0,0,1,384,133q6.87,0,13.63.5Z" transform="translate(-85 -84.66)"/><path class="cls-1" d="M398.7,133.58c.17.47.34.93.53,1.4l-1.6-1.48Z" transform="translate(-85 -84.66)"/><path class="cls-2" d="M398,250.65l-9.41,45.41A114.23,114.23,0,0,1,334.66,199q0-3,.16-6a131.81,131.81,0,0,1,14.68,7.53A133.73,133.73,0,0,1,398,250.65Z" transform="translate(-85 -84.66)"/><path class="cls-2" d="M394.16,299.35,384,318h0l4.55-21.94Q391.29,297.78,394.16,299.35Z" transform="translate(-85 -84.66)"/><path class="cls-2" d="M388.55,296.06,384,318,299.55,473A176.52,176.52,0,0,1,271.4,182.09,136.76,136.76,0,0,1,334.82,193q-.17,3-.16,6A114.23,114.23,0,0,0,388.55,296.06Z" transform="translate(-85 -84.66)"/><path class="cls-1" d="M354,135.43a113.33,113.33,0,0,0-5.84,9.73,175.65,175.65,0,0,0-76.71,36.93,135.06,135.06,0,0,0-14.78,1.76A184.42,184.42,0,0,1,354,135.43Z" transform="translate(-85 -84.66)"/><path class="cls-3" d="M348.11,145.16A113.56,113.56,0,0,0,334.82,193a136.76,136.76,0,0,0-63.42-10.88A175.65,175.65,0,0,1,348.11,145.16Z" transform="translate(-85 -84.66)"/><path class="cls-1" d="M299.55,473l-4.07,7.47a185,185,0,0,1-38.86-296.63,135.06,135.06,0,0,1,14.78-1.76A176.52,176.52,0,0,0,299.55,473Z" transform="translate(-85 -84.66)"/><path class="cls-7" d="M500.42,385.24a99.68,99.68,0,0,1-4.58,15.36,122.21,122.21,0,0,1-11.31,21.69c-6,9.37-13.55,17.66-21.42,25.18a106.38,106.38,0,0,1-34,21.29c-50.78,20.16-106.3-.32-145.14-34-32.39-28.12-64.92-69-61.36-113.11,1.29-16,6.08-30.31,15-43.15,8.73-12.56,21-22.72,34.17-31.87,12.63-8.75,27.89-16.7,43.07-19,16-2.44,28.67-1.16,40.32,7.87,9.24,7.17,15.06,17.11,20.73,28.71,5.77,11.81,10.6,25,16.38,37s12.31,23.57,20.65,33.91c9.17,11.38,20.64,19.85,32.92,27.84a92.38,92.38,0,0,0,10.82,5.7c-39.49,30.79-99.14,23.63-144.43,15a53.52,53.52,0,0,0,8.33,14.54c3.94,5.09,9.65,10,16.82,14.5,7.7,4.83,17.91,8.43,26.64,10.25a93.8,93.8,0,0,0,34.49.39c12.65-2.2,25.69-6.91,36.39-15.71,8.35-6.87,13-13.09,15.36-17.56C467.48,393.25,484.44,393.75,500.42,385.24ZM383,344.76a80.25,80.25,0,0,0-5-11.71,102.77,102.77,0,0,0-7.71-12.72,92.4,92.4,0,0,0-10.45-12.42,44.37,44.37,0,0,0-14.95-9.83c-5.86-2.39-11.72-3.42-16.6-2.4a26.43,26.43,0,0,0-12.47,6.11,34.59,34.59,0,0,0-8.12,11,30.43,30.43,0,0,0-3,13.32C330.49,333.36,356.54,340.73,383,344.76Z" transform="translate(-85 -84.66)"/><path class="cls-7" d="M230,269c-2.3-.9,2.77-34.81,27-59,6.27-6.26,11.26-9.31,15.2-11.22,13-6.29,32.73-8.8,43.8,1.22.91.82,7.43,6.73,6,12-.39,1.43-2,5.06-23,10-14.66,3.45-18,2.65-27,6a77.06,77.06,0,0,0-17,9C236.08,250.51,231.76,269.68,230,269Z" transform="translate(-85 -84.66)"/><path class="cls-7" d="M507,392c-1.58,3-.3,4.64-1,12a34.36,34.36,0,0,1-2,10,29.33,29.33,0,0,1-7,10c-6.31,6.51-9.73,6.11-12,11-1.65,3.57-2.06,8.59,0,10,2.93,2,10.11-3.83,14-7,7.83-6.37,12.63-12.57,22-26,13.24-19,14.25-21.74,13-24-2.48-4.49-12.52-4.48-19-2C512.78,386.85,508.91,388.33,507,392Z" transform="translate(-85 -84.66)"/><path class="cls-7" d="M477,447a4.62,4.62,0,1,0-1,9,4.67,4.67,0,0,0,1-9Z" transform="translate(-85 -84.66)"/><path class="cls-7" d="M495.58,375.89c-2.66,0-5.57,1.59-5.55,3.16s2.76,2.43,5.38,1.84c2-.44,3.49-1.65,3.58-2.82S497.58,375.91,495.58,375.89Z" transform="translate(-85 -84.66)"/><path class="cls-6" d="M316.25,160.63c-2.83.94-5.28,3.44-4.84,4.3.65,1.26,7.86-.58,9.23-2.14C321.75,161.52,319.81,159.45,316.25,160.63Z" transform="translate(-85 -84.66)"/><path class="cls-6" d="M306.64,173.88c1.62-1.89,1.56-5.34.05-6.41-2.56-1.82-9.88,2.86-9.41,5.23C297.67,174.69,304,177,306.64,173.88Z" transform="translate(-85 -84.66)"/><ellipse class="cls-6" cx="328" cy="158.5" rx="2" ry="1.5" transform="translate(-104.73 -34.74) rotate(-8.45)"/><text class="cls-8" transform="translate(0 506.73) scale(1.05 1)"><tspan xml:space="preserve">e  l  i  x  i  r</tspan></text></svg>