<svg id="Layer_1" data-name="Layer 1" xmlns="http://www.w3.org/2000/svg" viewBox="0 0 781 669"><defs><style>.cls-1{fill:#bbf0f8;}.cls-2{fill:#c79c73;}.cls-3{fill:#b78963;}.cls-4{fill:#dffaff;}.cls-5{fill:#17bd5a;}.cls-6,.cls-7{fill:#00a141;}.cls-7{font-size:122.8059px;font-family:ColonnaMT, Colonna MT;}</style></defs><title>elixirW_small</title><path class="cls-1" d="M569,318a184.76,184.76,0,0,1-8.68,56.15c-2.79.53-5.96,1.02-9.43,1.42a177.185,177.185,0,0,0-2.06-120.8,108.8689,108.8689,0,0,0,5.04-10.15A184.2536,184.2536,0,0,1,569,318Z"/><path class="cls-2" d="M551.9,149.1l-.15.15a114.44,114.44,0,0,1-69.19-12.15l21.02-38.59A114.71,114.71,0,0,1,551.9,149.1Z"/><path class="cls-3" d="M551.75,149.25,519.4,181.79a298.87,298.87,0,0,0-44.84-30.01l8-14.68a114.44,114.44,0,0,0,69.19,12.15Z"/><path class="cls-1" d="M550.89,375.57c3.47-.4,6.64-.89,9.43-1.42A185.1081,185.1081,0,0,1,295.48,480.48l4.07-7.47a176.5912,176.5912,0,0,0,251.34-97.44Z"/><path class="cls-4" d="M560.5,318a176.0463,176.0463,0,0,1-9.61,57.57,311.83,311.83,0,0,0-76.62-65.04,114.4309,114.4309,0,0,0,74.56-55.76A175.9785,175.9785,0,0,1,560.5,318Z"/><path class="cls-1" d="M553.87,244.62a108.8689,108.8689,0,0,1-5.04,10.15,176.1966,176.1966,0,0,0-27.37-47.48c3.1-.4,6.15-.95,9.15-1.61.16.04.32.07.48.11A184.3293,184.3293,0,0,1,553.87,244.62Z"/><path class="cls-5" d="M550.89,375.57c-19.93,2.31-50.07,1.44-80.39-16.07a128.614,128.614,0,0,1-48.11-49.28,115.0333,115.0333,0,0,0,51.88.31,311.83,311.83,0,0,1,76.62,65.04Z"/><path class="cls-6" d="M470.5,359.5c30.32,17.51,60.46,18.38,80.39,16.07a176.5912,176.5912,0,0,1-251.34,97.44L384,318l.01-.01,15.7-15.8a112.6629,112.6629,0,0,0,22.68,8.03A128.614,128.614,0,0,0,470.5,359.5Z"/><path class="cls-4" d="M548.83,254.77a114.4309,114.4309,0,0,1-74.56,55.76,318.8842,318.8842,0,0,0-56.25-26.75l75.65-76.1a114.0842,114.0842,0,0,0,12.33.66,112.6571,112.6571,0,0,0,15.46-1.05A176.1966,176.1966,0,0,1,548.83,254.77Z"/><path class="cls-1" d="M530.95,205.6c.05.06.09.13.14.19-.16-.04-.32-.07-.48-.11A3.3834,3.3834,0,0,0,530.95,205.6Z"/><path class="cls-1" d="M530.95,205.6a3.3834,3.3834,0,0,1-.34.08q-6.855-1.695-13.59-3.68-4.125-4.74-8.59-9.17l1.73-1.75q5.91,2.04,11.94,3.82Q526.72,200.09,530.95,205.6Z"/><path class="cls-1" d="M530.61,205.68c-3,.66-6.05,1.21-9.15,1.61q-2.175-2.7-4.44-5.29Q523.755,203.995,530.61,205.68Z"/><path class="cls-3" d="M519.4,181.79l-4.98,5.01a185.42,185.42,0,0,0-41.9-31.28l2.04-3.74A298.87,298.87,0,0,1,519.4,181.79Z"/><path class="cls-4" d="M517.02,202q2.265,2.595,4.44,5.29A112.6571,112.6571,0,0,1,506,208.34a114.0842,114.0842,0,0,1-12.33-.66l9.94-10Q510.24,199.99,517.02,202Z"/><path class="cls-1" d="M514.42,186.8q3.96,3.93,7.68,8.1-6.03-1.785-11.94-3.82Z"/><path class="cls-3" d="M514.42,186.8l-4.26,4.28c-1.87-.63-3.74-1.29-5.59-1.97a177.0046,177.0046,0,0,0-36.12-26.12l4.07-7.47A185.42,185.42,0,0,1,514.42,186.8Z"/><path class="cls-1" d="M508.43,192.83q4.47,4.425,8.59,9.17-6.78-2.01-13.41-4.32Z"/><path class="cls-1" d="M510.16,191.08l-1.73,1.75c-1.27-1.26-2.55-2.5-3.86-3.72C506.42,189.79,508.29,190.45,510.16,191.08Z"/><path class="cls-1" d="M508.43,192.83l-4.82,4.85a296.9591,296.9591,0,0,1-43.58-19.23l4.15-7.61a297.0063,297.0063,0,0,0,40.39,18.27C505.88,190.33,507.16,191.57,508.43,192.83Z"/><path class="cls-3" d="M503.61,197.68l-9.94,10a113.4843,113.4843,0,0,1-42.35-13.24l8.71-15.99A296.9591,296.9591,0,0,0,503.61,197.68Z"/><path class="cls-2" d="M503.58,98.51,482.56,137.1a114.76,114.76,0,0,1-49.52-51.32,114.4272,114.4272,0,0,1,70.54,12.73Z"/><path class="cls-4" d="M493.67,207.68l-75.65,76.1c-2.55-.92-5.03-1.78-7.42-2.58a1.026,1.026,0,0,0-.14-.04v-.01l.04-.1c-.42-1.55-1.14-4.13-2.29-7.48l43.11-79.13A113.4843,113.4843,0,0,0,493.67,207.68Z"/><path class="cls-3" d="M482.56,137.1l-8,14.68a296.4571,296.4571,0,0,0-51.53-22.13l9.07-43.74c.31-.06.62-.1.94-.13A114.76,114.76,0,0,0,482.56,137.1Z"/><path class="cls-3" d="M474.56,151.78l-2.04,3.74a183.4634,183.4634,0,0,0-50.97-18.7l1.48-7.17A296.4571,296.4571,0,0,1,474.56,151.78Z"/><path class="cls-3" d="M472.52,155.52l-4.07,7.47a174.7208,174.7208,0,0,0-41.58-16.24q-3.21-2.43-6.36-4.95l1.04-4.98A183.4634,183.4634,0,0,1,472.52,155.52Z"/><path class="cls-3" d="M468.45,162.99a177.0046,177.0046,0,0,1,36.12,26.12,297.0063,297.0063,0,0,1-40.39-18.27Z"/><path class="cls-3" d="M468.45,162.99l-4.27,7.85a297.2482,297.2482,0,0,1-37.31-24.09A174.7208,174.7208,0,0,1,468.45,162.99Z"/><path class="cls-1" d="M464.18,170.84l-4.15,7.61a298.1526,298.1526,0,0,1-41.49-27.1l1.28-6.21c2.37.49,4.72,1.02,7.05,1.61A297.2482,297.2482,0,0,0,464.18,170.84Z"/><path class="cls-3" d="M460.03,178.45l-8.71,15.99a114.61,114.61,0,0,1-35.47-30.11l2.69-12.98A298.1526,298.1526,0,0,0,460.03,178.45Z"/><path class="cls-5" d="M418.02,283.78a318.8842,318.8842,0,0,1,56.25,26.75,115.0333,115.0333,0,0,1-51.88-.31A136.3647,136.3647,0,0,1,412.83,289Z"/><path class="cls-4" d="M451.32,194.44l-43.11,79.13a141.2882,141.2882,0,0,0-10.25-22.92l17.89-86.32A114.61,114.61,0,0,0,451.32,194.44Z"/><path class="cls-1" d="M420.51,141.8q3.15,2.52,6.36,4.95c-2.33-.59-4.68-1.12-7.05-1.61Z"/><path class="cls-1" d="M421.55,136.82l-1.04,4.98q-4.05-3.225-7.98-6.61Q417.075,135.895,421.55,136.82Z"/><path class="cls-1" d="M420.51,141.8l-.69,3.34q-5.595-1.155-11.33-1.95-4.71-4.005-9.26-8.21c-.19-.47-.36-.93-.53-1.4,4.66.36,9.28.9,13.83,1.61Q416.46,138.58,420.51,141.8Z"/><path class="cls-1" d="M419.82,145.14l-1.28,6.21q-5.115-3.96-10.05-8.16Q414.22,143.985,419.82,145.14Z"/><path class="cls-4" d="M418.54,151.35l-2.69,12.98a114.0158,114.0158,0,0,1-13.44-21.88q3.06.315,6.08.74Q413.425,147.375,418.54,151.35Z"/><path class="cls-5" d="M418.02,283.78,412.83,289c-1.17-3.39-1.91-5.99-2.33-7.5l.1-.3C412.99,282,415.47,282.86,418.02,283.78Z"/><path class="cls-4" d="M415.85,164.33l-17.89,86.32A133.7311,133.7311,0,0,0,349.5,200.5a131.8128,131.8128,0,0,0-14.68-7.53,113.5608,113.5608,0,0,1,13.29-47.81,178.1548,178.1548,0,0,1,54.3-2.71A114.0158,114.0158,0,0,0,415.85,164.33Z"/><path class="cls-6" d="M412.83,289a136.3647,136.3647,0,0,0,9.56,21.22,112.6629,112.6629,0,0,1-22.68-8.03Z"/><path class="cls-6" d="M410.46,281.15v.01a1.026,1.026,0,0,1,.14.04l-.1.3c.42,1.51,1.16,4.11,2.33,7.5l-13.12,13.19q-2.82-1.335-5.55-2.84l14.05-25.78c1.15,3.35,1.87,5.93,2.29,7.48Z"/><path class="cls-6" d="M408.21,273.57l-14.05,25.78q-2.865-1.56-5.61-3.29l9.41-45.41A141.2882,141.2882,0,0,1,408.21,273.57Z"/><path class="cls-1" d="M408.49,143.19q-3.015-.42-6.08-.74-1.725-3.66-3.18-7.47Q403.775,139.18,408.49,143.19Z"/><path class="cls-6" d="M399.71,302.19l-15.7,15.8,10.15-18.64Q396.89,300.85,399.71,302.19Z"/><path class="cls-1" d="M399.23,134.98q1.455,3.81,3.18,7.47a178.1548,178.1548,0,0,0-54.3,2.71,113.3274,113.3274,0,0,1,5.84-9.73A186.0434,186.0434,0,0,1,384,133q6.87,0,13.63.5C398.16,134,398.69,134.49,399.23,134.98Z"/><path class="cls-1" d="M398.7,133.58c.17.47.34.93.53,1.4-.54-.49-1.07-.98-1.6-1.48C397.99,133.52,398.35,133.55,398.7,133.58Z"/><path class="cls-6" d="M397.96,250.65l-9.41,45.41A114.2281,114.2281,0,0,1,334.66,199q0-3.03.16-6.03a131.8128,131.8128,0,0,1,14.68,7.53A133.7311,133.7311,0,0,1,397.96,250.65Z"/><path class="cls-6" d="M394.16,299.35l-10.15,18.64L384,318l4.55-21.94Q391.295,297.785,394.16,299.35Z"/><path class="cls-6" d="M388.55,296.06,384,318,299.55,473.01A176.5164,176.5164,0,0,1,271.4,182.09a136.7562,136.7562,0,0,1,63.42,10.88q-.165,3-.16,6.03A114.2281,114.2281,0,0,0,388.55,296.06Z"/><path class="cls-1" d="M353.95,135.43a113.3274,113.3274,0,0,0-5.84,9.73,175.6539,175.6539,0,0,0-76.71,36.93,135.0569,135.0569,0,0,0-14.78,1.76A184.4154,184.4154,0,0,1,353.95,135.43Z"/><path class="cls-4" d="M348.11,145.16a113.5608,113.5608,0,0,0-13.29,47.81,136.7562,136.7562,0,0,0-63.42-10.88A175.6539,175.6539,0,0,1,348.11,145.16Z"/><path class="cls-1" d="M299.55,473.01l-4.07,7.47a185.02,185.02,0,0,1-38.86-296.63,135.0569,135.0569,0,0,1,14.78-1.76,176.5164,176.5164,0,0,0,28.15,290.92Z"/><path class="cls-6" d="M230,269c-2.3036-.8969,2.7739-34.8107,27-59,6.2731-6.2636,11.2642-9.313,15.2037-11.2159C285.2444,192.4855,304.9288,189.9769,316,200c.9055.82,7.43,6.7263,6,12-.3885,1.4336-1.9714,5.0582-23,10-14.6593,3.445-17.991,2.6472-27,6a77.135,77.135,0,0,0-17,9C236.085,250.5135,231.7561,269.6837,230,269Z"/><path class="cls-6" d="M507,392c-1.5833,3.0405-.2975,4.6414-1,12a34.4252,34.4252,0,0,1-2,10,29.3044,29.3044,0,0,1-7,10c-6.306,6.5075-9.7336,6.1052-12,11-1.6512,3.5662-2.0593,8.5907,0,10,2.9316,2.0062,10.1071-3.8323,14-7,7.83-6.3711,12.6252-12.5737,22-26,13.24-18.9614,14.2516-21.738,13-24-2.4841-4.4894-12.5155-4.478-19-2C512.7766,386.85,508.9132,388.326,507,392Z"/><path class="cls-6" d="M477,447a4.6174,4.6174,0,1,0-1,9,4.667,4.667,0,0,0,1-9Z"/><text class="cls-7" transform="translate(85 591.3931) scale(1.0457 1)"><tspan xml:space="preserve">e  l  i  x  i  r</tspan></text></svg>