<svg xmlns="http://www.w3.org/2000/svg" viewBox="0 0 1150.49938 546.10376">
  <defs>
    <style>
      .cls-1 {
        fill: #999;
      }

      .cls-2 {
        fill: none;
        stroke: #666;
        stroke-miterlimit: 10;
      }
    </style>
  </defs>
  <title>Asset 31</title>
  <g id="Layer_2" data-name="Layer 2">
    <g id="Layer_1-2" data-name="Layer 1">
      <g>
        <g>
          <polygon class="cls-1" points="771.771 281.475 771.771 387.487 662.331 418.134 662.331 281.475 771.771 281.475"/>
          <polygon class="cls-1" points="771.771 239.836 771.771 281.475 662.331 281.475 662.331 227.808 771.771 239.836"/>
          <polygon class="cls-1" points="771.771 231.592 771.771 239.836 662.331 227.808 662.331 217.177 771.771 231.592"/>
          <polygon class="cls-1" points="771.771 198.902 771.771 231.592 662.331 217.177 662.331 175.027 771.771 198.902"/>
          <polygon class="cls-1" points="662.331 31.4 662.331 31.415 630.681 43.368 630.681 15.168 662.331 31.4"/>
          <polygon class="cls-1" points="630.681 281.475 630.681 417.188 521.231 393.598 521.231 281.475 630.681 281.475"/>
          <polygon class="cls-1" points="630.681 224.324 630.681 281.475 521.231 281.475 521.231 212.282 630.681 224.324"/>
          <polygon class="cls-1" points="630.681 213.002 630.681 224.324 521.231 212.282 521.231 198.587 630.681 213.002"/>
          <polygon class="cls-1" points="630.681 168.12 630.681 213.002 521.231 198.587 521.231 144.245 630.681 168.12"/>
          <polygon class="cls-1" points="630.681 43.368 630.681 168.12 521.231 144.245 521.231 84.707 630.681 43.368"/>
          <polygon class="cls-1" points="630.681 15.168 630.681 43.368 521.231 84.707 521.231 59.525 628.271 13.937 630.681 15.168"/>
          <polygon class="cls-1" points="488.711 466.755 488.711 491.592 379.271 526.474 379.271 497.418 488.711 466.755"/>
          <polygon class="cls-1" points="488.711 386.601 488.711 466.755 379.271 497.418 379.271 363.026 488.711 386.601"/>
          <polygon class="cls-1" points="488.711 281.475 488.711 386.601 379.271 363.026 379.271 281.475 488.711 281.475"/>
          <polygon class="cls-1" points="488.711 208.708 488.711 281.475 379.271 281.475 379.271 196.665 488.711 208.708"/>
          <polygon class="cls-1" points="488.711 137.157 488.711 194.293 379.271 179.877 379.271 138.328 421.311 122.442 488.711 137.157"/>
          <polygon class="cls-1" points="421.311 122.442 379.271 138.328 379.271 119.979 389.671 115.549 421.311 122.442"/>
          <polygon class="cls-1" points="389.671 115.549 379.271 119.979 379.271 113.282 389.671 115.549"/>
          <polygon class="cls-1" points="379.271 497.418 379.271 526.474 347.891 506.202 379.271 497.418"/>
        </g>
        <g>
          <polyline class="cls-2" points="1141.271 283.637 1131.991 286.595 771.771 401.391 685.301 428.945 662.331 436.273 630.681 446.349 521.231 481.231 488.711 491.592 379.271 526.474"/>
          <polyline class="cls-2" points="2.271 281.475 379.271 281.475 488.711 281.475 521.231 281.475 630.681 281.475 662.331 281.475 771.771 281.475 1150.271 281.475"/>
          <polyline class="cls-2" points="379.271 526.474 347.891 506.202 0.271 281.625"/>
          <polygon class="cls-2" points="630.681 446.349 630.681 545.604 521.231 545.604 521.231 481.231 521.231 457.656 521.231 408.389 521.231 393.598 521.231 281.475 521.231 212.282 521.231 198.587 521.231 144.245 521.231 84.707 521.231 59.525 521.231 11.039 630.681 11.039 630.681 15.168 630.681 43.368 630.681 168.12 630.681 213.002 630.681 224.324 630.681 281.475 630.681 417.188 630.681 426.993 630.681 446.349"/>
          <polygon class="cls-2" points="771.771 447.58 771.771 545.604 662.331 545.604 662.331 436.273 662.331 424.005 662.331 418.134 662.331 281.475 662.331 227.808 662.331 217.177 662.331 175.027 662.331 31.415 662.331 31.4 662.331 11.039 716.281 11.039 771.771 11.039 771.771 87.485 771.771 198.902 771.771 231.592 771.771 239.836 771.771 281.475 771.771 387.487 771.771 401.391 771.771 447.58"/>
          <polygon class="cls-2" points="488.711 491.592 488.711 544.973 379.271 544.973 379.271 526.474 379.271 497.418 379.271 363.026 379.271 281.475 379.271 196.665 379.271 179.877 379.271 138.328 379.271 119.979 379.271 113.282 379.271 10.408 488.711 10.408 488.711 73.37 488.711 96.99 488.711 137.157 488.711 194.293 488.711 208.708 488.711 281.475 488.711 386.601 488.711 466.755 488.711 491.592"/>
          <polyline class="cls-2" points="1150.271 281.475 771.771 198.902 662.331 175.027 630.681 168.12 521.231 144.245 488.711 137.157 421.311 122.442 389.671 115.549 379.271 113.282 345.771 105.969"/>
          <polyline class="cls-2" points="0.291 281.37 379.271 119.979 389.671 115.549 488.711 73.37 521.231 59.525 628.271 13.937"/>
          <polyline class="cls-2" points="1017.271 500.466 771.771 447.58 685.301 428.945 662.331 424.005 650.501 421.453 630.681 417.188 521.231 393.598 488.711 386.601 379.271 363.026 2.241 281.79 0.451 281.415 0.291 281.37 0.271 281.37"/>
          <polyline class="cls-2" points="1150.271 281.475 1131.991 286.595 771.771 387.487 662.331 418.134 650.501 421.453 630.681 426.993 521.231 457.656 488.711 466.755 379.271 497.418 347.891 506.202 236.271 537.465"/>
          <polyline class="cls-2" points="628.271 13.937 630.681 15.168 662.331 31.4 662.361 31.4 771.771 87.485 1150.271 281.475"/>
          <polyline class="cls-2" points="0.271 281.475 0.451 281.415 379.271 138.328 421.311 122.442 488.711 96.99 521.231 84.707 630.681 43.368 662.331 31.415 662.361 31.4 716.281 11.039 744.271 0.468"/>
          <polyline class="cls-2" points="342.271 192.596 379.271 196.665 488.711 208.708 521.231 212.282 630.681 224.324 662.331 227.808 771.771 239.836 1150.271 281.475"/>
          <polyline class="cls-2" points="1150.271 281.475 771.771 231.592 662.331 217.177 630.681 213.002 521.231 198.587 488.711 194.293 379.271 179.877 342.271 174.997"/>
        </g>
      </g>
    </g>
  </g>
</svg>
