<?xml version="1.0" encoding="utf-8"?>
<!-- Generator: Adobe Illustrator 23.0.1, SVG Export Plug-In . SVG Version: 6.00 Build 0)  -->
<svg version="1.1" id="Layer_1" xmlns="http://www.w3.org/2000/svg" xmlns:xlink="http://www.w3.org/1999/xlink" x="0px" y="0px"
	 viewBox="0 0 1139 489" style="enable-background:new 0 0 1139 489;" xml:space="preserve">
<style type="text/css">
	.st0{fill:#16110F;}
	.st1{fill:#050800;}
	.st2{fill:#227000;stroke:#FFFFFF;stroke-width:5;stroke-miterlimit:10;}
	.st3{fill:#007F39;stroke:#000000;stroke-width:5;stroke-miterlimit:10;}
	.st4{fill:#007F39;stroke:#FFFFFF;stroke-width:5;stroke-miterlimit:10;}
	.st5{fill:#227000;stroke:#227000;stroke-width:2;stroke-miterlimit:10;}
</style>
<ellipse class="st0" cx="312.83" cy="342.6" rx="258.17" ry="104.6"/>
<g>
	<ellipse class="st1" cx="312.29" cy="342.33" rx="231.81" ry="93.92"/>
</g>
<path class="st2" d="M400.71,434.71c2.55,0.32,5.06,0.43,7.6,0.42c0.71-0.04,1.42-0.06,2.13-0.06c0.33-0.2,0.7-0.38,1.12-0.53
	c6-2.12,12.13-3.67,18.35-4.94c1-0.21,2.02-0.04,2.96,0.36c0.81-0.34,1.63-0.57,2.49-0.72l25.6-131.76l-58.65-10.25l-29.56,152.13
	c7.75,0,15.5-0.04,23.22-0.74C396.16,436.32,397.73,434.33,400.71,434.71z"/>
<path class="st2" d="M350.64,439.79c8.9-0.57,17.81-0.4,26.72-0.44l19.41-149.62l-59.18-6.54L317,441.97
	C328.22,441.45,339.4,440.51,350.64,439.79z"/>
<path class="st2" d="M208.41,433.45c5.92,3.35,12.93,3.22,19.53,3.49c8.02,0.33,16,1.05,23.96,2.1c4.59,0.61,9.19,1.12,13.79,1.57
	l-33.17-379.1l-59.77,5.23l32.04,366.18C205.88,432.62,207.13,432.72,208.41,433.45z"/>
<path class="st2" d="M301.09,442.37c5.75,0.01,11.47-0.17,17.18-0.45l20.94-405.64l-59.84-0.86l-20.88,404.43
	C272.63,441.48,286.84,442.33,301.09,442.37z"/>
<polygon class="st2" points="357.14,407.85 299.82,390.3 344.8,252.63 402.12,270.17 "/>
<polygon class="st2" points="415.4,416.49 359.06,396.25 405.49,274.22 461.83,294.46 "/>
<path class="st3" d="M579.5,512.5"/>
<path class="st4" d="M157.5,383.5"/>
<polygon class="st2" points="173.3,378.76 150.26,321.52 337.14,264.51 360.17,321.76 "/>
<path class="st4" d="M392.5,488.5"/>
<path class="st2" d="M203.82,432.74c0.17,0.11,0.35,0.21,0.53,0.32c0.19-0.07,0.38-0.14,0.57-0.18l-4.57-60.06l-26.3,7.34
	l27.02,51.86C201.96,431.96,202.89,432.17,203.82,432.74z"/>
<path class="st0" d="M544.22,296.18c-0.21,0.68-0.51,1.34-0.93,1.92c-3.46,4.9-7.55,9.51-12.12,13.24
	c8.37,9.7,12.94,20.13,12.94,30.99c0,51.87-103.79,93.92-231.81,93.92S80.48,394.2,80.48,342.33c0-15.58,9.38-30.28,25.96-43.22
	c-3.38-4.33-6.3-9.18-8.79-14.32c-27.16,16.56-42.99,36.42-42.99,57.79c0,57.77,115.59,104.6,258.17,104.6S571,400.37,571,342.6
	C571,325.92,561.35,310.17,544.22,296.18z"/>
<g>
	<path class="st5" d="M611.01,239.76l19.22-96.11h36.5c7.4,0,13.02,1.6,16.85,4.81c3.83,3.2,5.75,7.84,5.75,13.9
		c0,4.07-0.89,8.15-2.67,12.24c-1.78,4.09-4.33,7.95-7.64,11.56c-3.32,3.62-7.81,6.83-13.49,9.64l15.94,43.96h-22.16l-14.11-39.29
		h-7.13l-7.86,39.29H611.01z M640.63,187.68h3.57c4.5,0,8.58-0.9,12.24-2.7c3.66-1.8,6.61-4.59,8.86-8.38
		c2.25-3.79,3.38-7.48,3.38-11.07c0-1.9-0.33-3.54-1-4.9c-0.67-1.36-1.72-2.4-3.15-3.12c-1.43-0.71-5.23-1.07-11.42-1.07h-6.23
		L640.63,187.68z"/>
	<path class="st5" d="M732.15,232.35c-2.81,2.99-5.94,5.24-9.39,6.76s-7.23,2.27-11.33,2.27c-5.74,0-10.46-1.57-14.15-4.71
		c-3.69-3.14-5.54-7.32-5.54-12.52c0-5.59,1.67-10.75,5-15.48c2.77-3.95,6.79-7.24,12.07-9.88c5.28-2.64,13.69-3.97,25.24-3.97h7.53
		l0.76-3.44c0.17-0.91,0.26-1.82,0.26-2.73c0-2.77-1.12-4.84-3.35-6.2c-2.23-1.36-5.58-2.05-10.04-2.05c-3.47,0-7.22,0.5-11.27,1.49
		c-4.05,1-8.41,2.51-13.09,4.55l2.79-14.03c4.72-1.6,9.39-2.8,14.03-3.6c4.63-0.8,9.22-1.2,13.77-1.2c8.96,0,15.64,1.54,20.03,4.62
		c4.39,3.08,6.59,7.19,6.59,12.35c0,2.77-0.45,6.43-1.36,10.98l-4.85,23.92c-0.43,2.17-0.65,3.63-0.65,4.36c0,1,0.37,1.75,1.11,2.25
		c0.74,0.5,1.57,0.75,2.49,0.75c0.57,0,1.35-0.11,2.36-0.32l-2.61,12.79c-4.22,1.39-7.89,2.08-11.02,2.08
		c-3.22,0-6.04-0.67-8.48-2.01c-1.26-0.74-2.25-1.53-2.97-2.37c-0.72-0.84-1.4-2.39-2.05-4.65H732.15z M736.7,219.18l2.33-11.5
		h-6.99c-8.32,0-13.86,1.36-16.62,4.09c-2.76,2.73-4.14,5.39-4.14,7.99c0,2.21,0.81,3.96,2.42,5.26c1.62,1.3,3.55,1.95,5.79,1.95
		c1.98,0,4.49-0.62,7.53-1.85C730.07,223.89,733.29,221.91,736.7,219.18z"/>
	<path class="st5" d="M770.38,239.76l20.52-102.54h19.21l-6.39,31.95l-3.46,13.33h0.78c2.6-3.25,4.69-5.58,6.27-6.99
		c1.58-1.41,3.47-2.79,5.68-4.13c2.29-1.34,4.47-2.31,6.53-2.89c2.06-0.58,4.25-0.88,6.59-0.88c6.41,0,11.47,2.15,15.2,6.44
		c3.72,4.29,5.58,10.27,5.58,17.94c0,8.8-2.01,17.44-6.04,25.93c-3.6,7.63-8.25,13.44-13.97,17.45s-11.96,6.01-18.72,6.01
		c-3.77,0-7.09-0.7-9.98-2.11s-5.3-3.5-7.25-6.27h-0.84l-3.67,6.76H770.38z M793.59,219.75c1.3,1.86,3.1,3.44,5.4,4.71
		c2.3,1.28,4.66,1.92,7.09,1.92c2.38,0,4.65-0.57,6.79-1.72c2.15-1.15,3.85-2.61,5.1-4.39c2.17-2.95,3.98-6.81,5.43-11.58
		s2.18-9.02,2.18-12.75c0-3.6-0.88-6.25-2.63-7.97s-4.04-2.57-6.85-2.57c-2.77,0-5.56,0.86-8.38,2.57
		c-2.81,1.71-5.99,4.65-9.54,8.81L793.59,219.75z"/>
	<path class="st5" d="M850.52,239.76l20.52-102.54h19.21l-6.39,31.95l-3.46,13.33h0.78c2.6-3.25,4.69-5.58,6.27-6.99
		c1.58-1.41,3.47-2.79,5.68-4.13c2.29-1.34,4.47-2.31,6.53-2.89c2.06-0.58,4.25-0.88,6.59-0.88c6.41,0,11.47,2.15,15.2,6.44
		c3.72,4.29,5.58,10.27,5.58,17.94c0,8.8-2.01,17.44-6.04,25.93c-3.6,7.63-8.25,13.44-13.97,17.45s-11.96,6.01-18.72,6.01
		c-3.77,0-7.09-0.7-9.98-2.11s-5.3-3.5-7.25-6.27h-0.84l-3.67,6.76H850.52z M873.73,219.75c1.3,1.86,3.1,3.44,5.4,4.71
		c2.3,1.28,4.66,1.92,7.09,1.92c2.38,0,4.65-0.57,6.79-1.72c2.15-1.15,3.85-2.61,5.1-4.39c2.17-2.95,3.98-6.81,5.43-11.58
		s2.18-9.02,2.18-12.75c0-3.6-0.88-6.25-2.63-7.97s-4.04-2.57-6.85-2.57c-2.77,0-5.56,0.86-8.38,2.57
		c-2.81,1.71-5.99,4.65-9.54,8.81L873.73,219.75z"/>
	<path class="st5" d="M961.12,239.76l11.55-57.73h-25.65l2.59-12.79h44.82l-14.1,70.53H961.12z M977.81,156.44l3.84-19.22h19.2
		l-3.84,19.22H977.81z"/>
	<path class="st5" d="M1074.79,238.06c-8.19,2.22-15.34,3.33-21.45,3.33c-5.76,0-10.91-1.33-15.44-3.99
		c-4.53-2.66-6.79-6.68-6.79-12.05c0-2.29,0.28-4.81,0.84-7.53l6.83-34.16h-15.26l2.59-12.79h15.16l3.59-17.6h19.2l-3.58,17.6h26.09
		l-2.49,12.79H1058l-5.97,29.83c-0.56,2.81-0.84,4.82-0.84,6.03c0,2.29,0.93,4.11,2.79,5.45c1.86,1.34,4.42,2.01,7.67,2.01
		c5.11,0,10.42-1.04,15.92-3.12L1074.79,238.06z"/>
	<path class="st5" d="M608.55,361.76l19.22-96.11h19.21l-7.92,39.61h28.85l7.92-39.61h19.21l-19.22,96.11h-19.2l8.73-43.64h-28.85
		l-8.73,43.64H608.55z"/>
	<path class="st5" d="M722,363.39c-8.96,0-16.25-2.49-21.85-7.47c-5.61-4.98-8.41-11.61-8.41-19.89c0-3.6,0.5-7.53,1.49-11.8
		c1-4.27,2.4-8.11,4.22-11.54c3.68-6.89,9.05-12.46,16.11-16.7c7.06-4.25,14.78-6.37,23.18-6.37c9.48,0,16.97,2.53,22.47,7.57
		s8.25,11.65,8.25,19.79c0,3.55-0.51,7.47-1.53,11.76c-1.02,4.29-2.41,8.15-4.19,11.57c-3.68,6.8-9.04,12.35-16.07,16.64
		C738.63,361.24,730.74,363.39,722,363.39z M724.66,350.59c5.5,0,9.98-2.08,13.44-6.25c2.99-3.6,5.17-8.15,6.56-13.64
		c1.39-5.49,2.08-10.32,2.08-14.49c0-4.25-1.07-7.62-3.21-10.09c-2.14-2.47-5.21-3.71-9.19-3.71c-2.55,0-5,0.57-7.34,1.69
		c-2.34,1.13-4.31,2.65-5.91,4.56c-2.99,3.52-5.17,8.03-6.56,13.54c-1.39,5.51-2.08,10.38-2.08,14.59c0,4.25,1.07,7.62,3.21,10.09
		C717.81,349.36,720.81,350.59,724.66,350.59z"/>
	<path class="st5" d="M794.47,361.76l17.95-89.75h-25.68l2.6-12.79h44.84l-20.51,102.54H794.47z"/>
	<path class="st5" d="M918.03,358.81c-11.6,3.05-21.6,4.58-29.99,4.58c-9.82,0-17.78-2.38-23.86-7.15
		c-6.08-4.77-9.12-11.92-9.12-21.45c0-7.8,2.13-15.44,6.4-22.91c4.26-7.47,9.84-13.05,16.72-16.74c6.88-3.68,14.29-5.53,22.21-5.53
		c8.05,0,14.32,2.22,18.8,6.65c4.48,4.43,6.72,10.52,6.72,18.25c0,3.24-0.35,6.62-1.04,10.12l-1.43,7.13h-47.67
		c-0.13,1.13-0.2,2.07-0.2,2.81c0,4.06,1.77,7.47,5.32,10.24c3.55,2.77,8.25,4.16,14.09,4.16c7.57,0,16.25-1.71,26.03-5.13
		L918.03,358.81z M877.73,318.97h29.61c0.39-2.38,0.58-4.37,0.58-5.97c0-7.06-3.72-10.58-11.17-10.58c-4.55,0-8.46,1.47-11.75,4.42
		C881.71,309.77,879.29,313.82,877.73,318.97z"/>
</g>
<g>
</g>
<g>
</g>
<g>
</g>
<g>
</g>
<g>
</g>
<g>
</g>
<g>
</g>
<g>
</g>
<g>
</g>
<g>
</g>
<g>
</g>
<g>
</g>
<g>
</g>
<g>
</g>
<g>
</g>
</svg>
